<svg width="271" height="56" viewBox="0 0 271 56" fill="none" xmlns="http://www.w3.org/2000/svg">
<path d="M0 25.6C0 16.6392 0 12.1587 1.7439 8.73615C3.27787 5.72556 5.72556 3.27787 8.73615 1.7439C12.1587 0 16.6392 0 25.6 0H245.4C254.361 0 258.841 0 262.264 1.7439C265.274 3.27787 267.722 5.72556 269.256 8.73615C271 12.1587 271 16.6392 271 25.6V30.4C271 39.3608 271 43.8413 269.256 47.2638C267.722 50.2744 265.274 52.7221 262.264 54.2561C258.841 56 254.361 56 245.4 56H25.6C16.6392 56 12.1587 56 8.73615 54.2561C5.72556 52.7221 3.27787 50.2744 1.7439 47.2638C0 43.8413 0 39.3608 0 30.4V25.6Z" fill="white"/>
<path d="M25.5996 0.25H245.4C249.885 0.25 253.233 0.249841 255.889 0.466797C258.541 0.683527 260.48 1.11582 262.15 1.9668C265.114 3.47679 267.523 5.88613 269.033 8.84961C269.884 10.5197 270.316 12.4589 270.533 15.1113C270.75 17.7667 270.75 21.1153 270.75 25.5996V30.4004C270.75 34.8847 270.75 38.2333 270.533 40.8887C270.316 43.5411 269.884 45.4803 269.033 47.1504C267.523 50.1139 265.114 52.5232 262.15 54.0332C260.48 54.8842 258.541 55.3165 255.889 55.5332C253.233 55.7502 249.885 55.75 245.4 55.75H25.5996C21.1153 55.75 17.7667 55.7502 15.1113 55.5332C12.4589 55.3165 10.5197 54.8842 8.84961 54.0332C5.88613 52.5232 3.47679 50.1139 1.9668 47.1504C1.11582 45.4803 0.683527 43.5411 0.466797 40.8887C0.249841 38.2333 0.25 34.8847 0.25 30.4004V25.5996C0.25 21.1153 0.249841 17.7667 0.466797 15.1113C0.683527 12.4589 1.11582 10.5197 1.9668 8.84961C3.47679 5.88613 5.88613 3.47679 8.84961 1.9668C10.5197 1.11582 12.4589 0.683527 15.1113 0.466797C17.7667 0.249841 21.1153 0.25 25.5996 0.25Z" stroke="black" stroke-opacity="0.1" stroke-width="0.5"/>
<path d="M68.3486 21.6182C69.9387 21.6182 71.6235 22.511 72.8223 24.0518C68.892 26.273 69.5287 32.0603 73.5 33.6084C72.954 34.8558 72.6916 35.4137 71.9883 36.5186C71.0071 38.0609 69.6232 39.9808 67.9072 39.9951C66.3841 40.0121 65.9907 38.9727 63.9228 38.9854C61.8553 38.9967 61.4242 40.0155 59.8984 40C58.1837 39.9845 56.8728 38.2514 55.8916 36.709C53.1465 32.3995 52.8572 27.3406 54.5498 24.6494C55.7541 22.7387 57.6539 21.6211 59.4385 21.6211C61.2545 21.6211 62.3974 22.6484 63.9014 22.6484C65.3601 22.6484 66.2482 21.6183 68.3486 21.6182ZM67.8887 16C68.098 17.4577 67.5195 18.8861 66.7559 19.8965C65.9388 20.9802 64.5303 21.8182 63.166 21.7744C62.917 20.3789 63.5552 18.9412 64.331 17.9746C65.1822 16.9079 66.6407 16.0891 67.8887 16Z" fill="black"/>
<path d="M91.554 25.2727C91.4858 24.697 91.2093 24.25 90.7244 23.9318C90.2396 23.6136 89.6449 23.4545 88.9403 23.4545C88.4252 23.4545 87.9744 23.5379 87.5881 23.7045C87.2055 23.8712 86.9063 24.1004 86.6903 24.392C86.4782 24.6837 86.3722 25.0152 86.3722 25.3864C86.3722 25.697 86.446 25.964 86.5938 26.1875C86.7453 26.4072 86.9384 26.5909 87.1733 26.7386C87.4081 26.8826 87.6544 27.0019 87.9119 27.0966C88.1695 27.1875 88.4062 27.2614 88.6222 27.3182L89.804 27.6364C90.107 27.7159 90.4441 27.8258 90.8153 27.9659C91.1903 28.1061 91.5483 28.2973 91.8892 28.5398C92.2339 28.7784 92.518 29.0852 92.7415 29.4602C92.965 29.8352 93.0767 30.2955 93.0767 30.8409C93.0767 31.4697 92.9119 32.0379 92.5824 32.5455C92.2566 33.053 91.7794 33.4564 91.1506 33.7557C90.5256 34.0549 89.7661 34.2045 88.8722 34.2045C88.0388 34.2045 87.3172 34.0701 86.7074 33.8011C86.1013 33.5322 85.6241 33.1572 85.2756 32.6761C84.9309 32.1951 84.7358 31.6364 84.6903 31H86.1449C86.1828 31.4394 86.3305 31.803 86.5881 32.0909C86.8494 32.375 87.179 32.5871 87.5767 32.7273C87.9782 32.8636 88.41 32.9318 88.8722 32.9318C89.41 32.9318 89.893 32.8447 90.321 32.6705C90.7491 32.4924 91.0881 32.2462 91.3381 31.9318C91.5881 31.6136 91.7131 31.2424 91.7131 30.8182C91.7131 30.4318 91.6051 30.1174 91.3892 29.875C91.1733 29.6326 90.8892 29.4356 90.5369 29.2841C90.1847 29.1326 89.804 29 89.3949 28.8864L87.9631 28.4773C87.054 28.2159 86.3343 27.8428 85.804 27.358C85.2737 26.8731 85.0085 26.2386 85.0085 25.4545C85.0085 24.803 85.1847 24.2348 85.5369 23.75C85.893 23.2614 86.3703 22.8826 86.9688 22.6136C87.571 22.3409 88.2434 22.2045 88.9858 22.2045C89.7358 22.2045 90.4025 22.339 90.9858 22.608C91.5691 22.8731 92.0313 23.2367 92.3722 23.6989C92.7169 24.161 92.8987 24.6856 92.9176 25.2727H91.554ZM95.2116 34V25.2727H96.5526V34H95.2116ZM95.8935 23.8182C95.6321 23.8182 95.4067 23.7292 95.2173 23.5511C95.0317 23.3731 94.9389 23.1591 94.9389 22.9091C94.9389 22.6591 95.0317 22.4451 95.2173 22.267C95.4067 22.089 95.6321 22 95.8935 22C96.1548 22 96.3783 22.089 96.5639 22.267C96.7533 22.4451 96.848 22.6591 96.848 22.9091C96.848 23.1591 96.7533 23.3731 96.5639 23.5511C96.3783 23.7292 96.1548 23.8182 95.8935 23.8182ZM102.531 37.4545C101.884 37.4545 101.327 37.3712 100.861 37.2045C100.395 37.0417 100.007 36.8258 99.696 36.5568C99.3892 36.2917 99.1449 36.0076 98.9631 35.7045L100.031 34.9545C100.152 35.1136 100.306 35.2955 100.491 35.5C100.677 35.7083 100.931 35.8883 101.253 36.0398C101.579 36.1951 102.005 36.2727 102.531 36.2727C103.236 36.2727 103.817 36.1023 104.276 35.7614C104.734 35.4205 104.963 34.8864 104.963 34.1591V32.3864H104.849C104.751 32.5455 104.611 32.7424 104.429 32.9773C104.251 33.2083 103.993 33.4148 103.656 33.5966C103.323 33.7746 102.872 33.8636 102.304 33.8636C101.599 33.8636 100.967 33.697 100.406 33.3636C99.8494 33.0303 99.4081 32.5455 99.0824 31.9091C98.7604 31.2727 98.5994 30.5 98.5994 29.5909C98.5994 28.697 98.7566 27.9186 99.071 27.2557C99.3854 26.589 99.8229 26.0739 100.384 25.7102C100.944 25.3428 101.592 25.1591 102.327 25.1591C102.895 25.1591 103.346 25.2538 103.679 25.4432C104.016 25.6288 104.274 25.8409 104.452 26.0795C104.634 26.3144 104.774 26.5076 104.872 26.6591H105.009V25.2727H106.304V34.25C106.304 35 106.134 35.6098 105.793 36.0795C105.455 36.553 105.001 36.8996 104.429 37.1193C103.861 37.3428 103.228 37.4545 102.531 37.4545ZM102.486 32.6591C103.024 32.6591 103.478 32.536 103.849 32.2898C104.221 32.0436 104.503 31.6894 104.696 31.2273C104.889 30.7652 104.986 30.2121 104.986 29.5682C104.986 28.9394 104.891 28.3845 104.702 27.9034C104.512 27.4223 104.232 27.0455 103.861 26.7727C103.49 26.5 103.031 26.3636 102.486 26.3636C101.918 26.3636 101.444 26.5076 101.065 26.7955C100.69 27.0833 100.408 27.4697 100.219 27.9545C100.033 28.4394 99.9403 28.9773 99.9403 29.5682C99.9403 30.1742 100.035 30.7102 100.224 31.1761C100.418 31.6383 100.702 32.0019 101.077 32.267C101.455 32.5284 101.925 32.6591 102.486 32.6591ZM110.099 28.75V34H108.759V25.2727H110.054V26.6364H110.168C110.372 26.1932 110.683 25.8371 111.099 25.5682C111.516 25.2955 112.054 25.1591 112.713 25.1591C113.304 25.1591 113.821 25.2803 114.264 25.5227C114.707 25.7614 115.052 26.125 115.298 26.6136C115.545 27.0985 115.668 27.7121 115.668 28.4545V34H114.327V28.5455C114.327 27.8598 114.149 27.3258 113.793 26.9432C113.437 26.5568 112.948 26.3636 112.327 26.3636C111.899 26.3636 111.516 26.4564 111.179 26.642C110.846 26.8277 110.582 27.0985 110.389 27.4545C110.196 27.8106 110.099 28.2424 110.099 28.75ZM122.618 34V25.2727H123.959V34H122.618ZM123.3 23.8182C123.038 23.8182 122.813 23.7292 122.624 23.5511C122.438 23.3731 122.345 23.1591 122.345 22.9091C122.345 22.6591 122.438 22.4451 122.624 22.267C122.813 22.089 123.038 22 123.3 22C123.561 22 123.785 22.089 123.97 22.267C124.16 22.4451 124.254 22.6591 124.254 22.9091C124.254 23.1591 124.16 23.3731 123.97 23.5511C123.785 23.7292 123.561 23.8182 123.3 23.8182ZM127.756 28.75V34H126.415V25.2727H127.71V26.6364H127.824C128.028 26.1932 128.339 25.8371 128.756 25.5682C129.172 25.2955 129.71 25.1591 130.369 25.1591C130.96 25.1591 131.477 25.2803 131.92 25.5227C132.364 25.7614 132.708 26.125 132.955 26.6136C133.201 27.0985 133.324 27.7121 133.324 28.4545V34H131.983V28.5455C131.983 27.8598 131.805 27.3258 131.449 26.9432C131.093 26.5568 130.604 26.3636 129.983 26.3636C129.555 26.3636 129.172 26.4564 128.835 26.642C128.502 26.8277 128.239 27.0985 128.045 27.4545C127.852 27.8106 127.756 28.2424 127.756 28.75ZM142.251 34L139.592 25.2727H141.001L142.888 31.9545H142.979L144.842 25.2727H146.274L148.115 31.9318H148.206L150.092 25.2727H151.501L148.842 34H147.524L145.615 27.2955H145.479L143.57 34H142.251ZM153.274 34V25.2727H154.615V34H153.274ZM153.956 23.8182C153.695 23.8182 153.469 23.7292 153.28 23.5511C153.094 23.3731 153.001 23.1591 153.001 22.9091C153.001 22.6591 153.094 22.4451 153.28 22.267C153.469 22.089 153.695 22 153.956 22C154.217 22 154.441 22.089 154.626 22.267C154.816 22.4451 154.911 22.6591 154.911 22.9091C154.911 23.1591 154.816 23.3731 154.626 23.5511C154.441 23.7292 154.217 23.8182 153.956 23.8182ZM160.866 25.2727V26.4091H156.344V25.2727H160.866ZM157.662 23.1818H159.003V31.5C159.003 31.8788 159.058 32.1629 159.168 32.3523C159.281 32.5379 159.425 32.6629 159.599 32.7273C159.777 32.7879 159.965 32.8182 160.162 32.8182C160.31 32.8182 160.431 32.8106 160.526 32.7955C160.62 32.7765 160.696 32.7614 160.753 32.75L161.026 33.9545C160.935 33.9886 160.808 34.0227 160.645 34.0568C160.482 34.0947 160.276 34.1136 160.026 34.1136C159.647 34.1136 159.276 34.0322 158.912 33.8693C158.552 33.7064 158.253 33.4583 158.014 33.125C157.779 32.7917 157.662 32.3712 157.662 31.8636V23.1818ZM164.412 28.75V34H163.071V22.3636H164.412V26.6364H164.526C164.73 26.1856 165.037 25.8277 165.446 25.5625C165.859 25.2936 166.408 25.1591 167.094 25.1591C167.688 25.1591 168.209 25.2784 168.656 25.517C169.103 25.7519 169.45 26.1136 169.696 26.6023C169.946 27.0871 170.071 27.7045 170.071 28.4545V34H168.73V28.5455C168.73 27.8523 168.55 27.3163 168.19 26.9375C167.834 26.5549 167.34 26.3636 166.707 26.3636C166.268 26.3636 165.874 26.4564 165.526 26.642C165.181 26.8277 164.908 27.0985 164.707 27.4545C164.51 27.8106 164.412 28.2424 164.412 28.75ZM177.683 34H176.206L180.479 22.3636H181.933L186.206 34H184.729L181.251 24.2045H181.161L177.683 34ZM178.229 29.4545H184.183V30.7045H178.229V29.4545ZM187.837 37.2727V25.2727H189.132V26.6591H189.291C189.39 26.5076 189.526 26.3144 189.7 26.0795C189.878 25.8409 190.132 25.6288 190.462 25.4432C190.795 25.2538 191.246 25.1591 191.814 25.1591C192.549 25.1591 193.196 25.3428 193.757 25.7102C194.318 26.0777 194.755 26.5985 195.07 27.2727C195.384 27.947 195.541 28.7424 195.541 29.6591C195.541 30.5833 195.384 31.3845 195.07 32.0625C194.755 32.7367 194.32 33.2595 193.763 33.6307C193.206 33.9981 192.564 34.1818 191.837 34.1818C191.276 34.1818 190.827 34.089 190.49 33.9034C190.153 33.714 189.893 33.5 189.712 33.2614C189.53 33.0189 189.39 32.8182 189.291 32.6591H189.178V37.2727H187.837ZM189.155 29.6364C189.155 30.2955 189.251 30.8769 189.445 31.3807C189.638 31.8807 189.92 32.2727 190.291 32.5568C190.662 32.8371 191.117 32.9773 191.655 32.9773C192.215 32.9773 192.683 32.8295 193.058 32.5341C193.437 32.2348 193.721 31.8333 193.911 31.3295C194.104 30.822 194.2 30.2576 194.2 29.6364C194.2 29.0227 194.106 28.4697 193.916 27.9773C193.731 27.4811 193.448 27.089 193.07 26.8011C192.695 26.5095 192.223 26.3636 191.655 26.3636C191.109 26.3636 190.651 26.5019 190.28 26.7784C189.909 27.0511 189.628 27.4337 189.439 27.9261C189.25 28.4148 189.155 28.9848 189.155 29.6364ZM197.587 37.2727V25.2727H198.882V26.6591H199.041C199.14 26.5076 199.276 26.3144 199.45 26.0795C199.628 25.8409 199.882 25.6288 200.212 25.4432C200.545 25.2538 200.996 25.1591 201.564 25.1591C202.299 25.1591 202.946 25.3428 203.507 25.7102C204.068 26.0777 204.505 26.5985 204.82 27.2727C205.134 27.947 205.291 28.7424 205.291 29.6591C205.291 30.5833 205.134 31.3845 204.82 32.0625C204.505 32.7367 204.07 33.2595 203.513 33.6307C202.956 33.9981 202.314 34.1818 201.587 34.1818C201.026 34.1818 200.577 34.089 200.24 33.9034C199.903 33.714 199.643 33.5 199.462 33.2614C199.28 33.0189 199.14 32.8182 199.041 32.6591H198.928V37.2727H197.587ZM198.905 29.6364C198.905 30.2955 199.001 30.8769 199.195 31.3807C199.388 31.8807 199.67 32.2727 200.041 32.5568C200.412 32.8371 200.867 32.9773 201.405 32.9773C201.965 32.9773 202.433 32.8295 202.808 32.5341C203.187 32.2348 203.471 31.8333 203.661 31.3295C203.854 30.822 203.95 30.2576 203.95 29.6364C203.95 29.0227 203.856 28.4697 203.666 27.9773C203.481 27.4811 203.198 27.089 202.82 26.8011C202.445 26.5095 201.973 26.3636 201.405 26.3636C200.859 26.3636 200.401 26.5019 200.03 26.7784C199.659 27.0511 199.378 27.4337 199.189 27.9261C199 28.4148 198.905 28.9848 198.905 29.6364ZM208.678 22.3636V34H207.337V22.3636H208.678ZM214.793 34.1818C213.952 34.1818 213.226 33.9962 212.616 33.625C212.01 33.25 211.543 32.7273 211.213 32.0568C210.887 31.3826 210.724 30.5985 210.724 29.7045C210.724 28.8106 210.887 28.0227 211.213 27.3409C211.543 26.6553 212.001 26.1212 212.588 25.7386C213.179 25.3523 213.868 25.1591 214.656 25.1591C215.111 25.1591 215.56 25.2348 216.003 25.3864C216.446 25.5379 216.849 25.7841 217.213 26.125C217.577 26.4621 217.866 26.9091 218.082 27.4659C218.298 28.0227 218.406 28.7083 218.406 29.5227V30.0909H211.679V28.9318H217.043C217.043 28.4394 216.944 28 216.747 27.6136C216.554 27.2273 216.277 26.9223 215.918 26.6989C215.562 26.4754 215.141 26.3636 214.656 26.3636C214.122 26.3636 213.66 26.4962 213.27 26.7614C212.884 27.0227 212.586 27.3636 212.378 27.7841C212.17 28.2045 212.065 28.6553 212.065 29.1364V29.9091C212.065 30.5682 212.179 31.1269 212.406 31.5852C212.637 32.0398 212.957 32.3864 213.366 32.625C213.776 32.8598 214.251 32.9773 214.793 32.9773C215.145 32.9773 215.463 32.928 215.747 32.8295C216.035 32.7273 216.283 32.5758 216.491 32.375C216.7 32.1705 216.861 31.9167 216.974 31.6136L218.27 31.9773C218.134 32.4167 217.904 32.803 217.582 33.1364C217.26 33.4659 216.863 33.7235 216.389 33.9091C215.916 34.0909 215.384 34.1818 214.793 34.1818Z" fill="black"/>
</svg>
