<svg width="271" height="56" viewBox="0 0 271 56" fill="none" xmlns="http://www.w3.org/2000/svg">
<path d="M0 25.6C0 16.6392 0 12.1587 1.7439 8.73615C3.27787 5.72556 5.72556 3.27787 8.73615 1.7439C12.1587 0 16.6392 0 25.6 0H245.4C254.361 0 258.841 0 262.264 1.7439C265.274 3.27787 267.722 5.72556 269.256 8.73615C271 12.1587 271 16.6392 271 25.6V30.4C271 39.3608 271 43.8413 269.256 47.2638C267.722 50.2744 265.274 52.7221 262.264 54.2561C258.841 56 254.361 56 245.4 56H25.6C16.6392 56 12.1587 56 8.73615 54.2561C5.72556 52.7221 3.27787 50.2744 1.7439 47.2638C0 43.8413 0 39.3608 0 30.4V25.6Z" fill="white"/>
<path d="M25.5996 0.25H245.4C249.885 0.25 253.233 0.249841 255.889 0.466797C258.541 0.683527 260.48 1.11582 262.15 1.9668C265.114 3.47679 267.523 5.88613 269.033 8.84961C269.884 10.5197 270.316 12.4589 270.533 15.1113C270.75 17.7667 270.75 21.1153 270.75 25.5996V30.4004C270.75 34.8847 270.75 38.2333 270.533 40.8887C270.316 43.5411 269.884 45.4803 269.033 47.1504C267.523 50.1139 265.114 52.5232 262.15 54.0332C260.48 54.8842 258.541 55.3165 255.889 55.5332C253.233 55.7502 249.885 55.75 245.4 55.75H25.5996C21.1153 55.75 17.7667 55.7502 15.1113 55.5332C12.4589 55.3165 10.5197 54.8842 8.84961 54.0332C5.88613 52.5232 3.47679 50.1139 1.9668 47.1504C1.11582 45.4803 0.683527 43.5411 0.466797 40.8887C0.249841 38.2333 0.25 34.8847 0.25 30.4004V25.5996C0.25 21.1153 0.249841 17.7667 0.466797 15.1113C0.683527 12.4589 1.11582 10.5197 1.9668 8.84961C3.47679 5.88613 5.88613 3.47679 8.84961 1.9668C10.5197 1.11582 12.4589 0.683527 15.1113 0.466797C17.7667 0.249841 21.1153 0.25 25.5996 0.25Z" stroke="black" stroke-opacity="0.1" stroke-width="0.5"/>
<path d="M60 28C60 21.3719 54.6281 16 48 16C41.3719 16 36 21.3719 36 28C36 33.9907 40.3875 38.9547 46.125 39.8547V31.4688H43.0781V28H46.125V25.3563C46.125 22.3492 47.9156 20.6875 50.6578 20.6875C51.9703 20.6875 53.3438 20.9219 53.3438 20.9219V23.875H51.8297C50.3391 23.875 49.875 24.8008 49.875 25.75V28H53.2031L52.6711 31.4688H49.875V39.8547C55.6125 38.9547 60 33.9907 60 28Z" fill="#1877F2"/>
<path d="M52.6711 31.4688L53.2031 28H49.875V25.75C49.875 24.8008 50.3391 23.875 51.8297 23.875H53.3438V20.9219C53.3438 20.9219 51.9703 20.6875 50.6578 20.6875C47.9157 20.6875 46.125 22.3492 46.125 25.3562V28H43.0781V31.4688H46.125V39.8547C46.7367 39.9508 47.3625 40 48 40C48.6375 40 49.2633 39.9508 49.875 39.8547V31.4688H52.6711Z" fill="white"/>
<path d="M76.0696 25.2727C76.0014 24.697 75.7249 24.25 75.2401 23.9318C74.7552 23.6136 74.1605 23.4545 73.456 23.4545C72.9408 23.4545 72.4901 23.5379 72.1037 23.7045C71.7211 23.8712 71.4219 24.1004 71.206 24.392C70.9938 24.6837 70.8878 25.0152 70.8878 25.3864C70.8878 25.697 70.9616 25.964 71.1094 26.1875C71.2609 26.4072 71.4541 26.5909 71.6889 26.7386C71.9238 26.8826 72.17 27.0019 72.4276 27.0966C72.6851 27.1875 72.9219 27.2614 73.1378 27.3182L74.3196 27.6364C74.6226 27.7159 74.9598 27.8258 75.331 27.9659C75.706 28.1061 76.0639 28.2973 76.4048 28.5398C76.7495 28.7784 77.0336 29.0852 77.2571 29.4602C77.4806 29.8352 77.5923 30.2955 77.5923 30.8409C77.5923 31.4697 77.4276 32.0379 77.098 32.5455C76.7723 33.053 76.295 33.4564 75.6662 33.7557C75.0412 34.0549 74.2817 34.2045 73.3878 34.2045C72.5545 34.2045 71.8329 34.0701 71.223 33.8011C70.617 33.5322 70.1397 33.1572 69.7912 32.6761C69.4465 32.1951 69.2514 31.6364 69.206 31H70.6605C70.6984 31.4394 70.8461 31.803 71.1037 32.0909C71.3651 32.375 71.6946 32.5871 72.0923 32.7273C72.4938 32.8636 72.9257 32.9318 73.3878 32.9318C73.9257 32.9318 74.4086 32.8447 74.8366 32.6705C75.2647 32.4924 75.6037 32.2462 75.8537 31.9318C76.1037 31.6136 76.2287 31.2424 76.2287 30.8182C76.2287 30.4318 76.1207 30.1174 75.9048 29.875C75.6889 29.6326 75.4048 29.4356 75.0526 29.2841C74.7003 29.1326 74.3196 29 73.9105 28.8864L72.4787 28.4773C71.5696 28.2159 70.8499 27.8428 70.3196 27.358C69.7893 26.8731 69.5241 26.2386 69.5241 25.4545C69.5241 24.803 69.7003 24.2348 70.0526 23.75C70.4086 23.2614 70.8859 22.8826 71.4844 22.6136C72.0866 22.3409 72.759 22.2045 73.5014 22.2045C74.2514 22.2045 74.9181 22.339 75.5014 22.608C76.0848 22.8731 76.5469 23.2367 76.8878 23.6989C77.2325 24.161 77.4143 24.6856 77.4332 25.2727H76.0696ZM79.7273 34V25.2727H81.0682V34H79.7273ZM80.4091 23.8182C80.1477 23.8182 79.9223 23.7292 79.733 23.5511C79.5473 23.3731 79.4545 23.1591 79.4545 22.9091C79.4545 22.6591 79.5473 22.4451 79.733 22.267C79.9223 22.089 80.1477 22 80.4091 22C80.6705 22 80.8939 22.089 81.0795 22.267C81.2689 22.4451 81.3636 22.6591 81.3636 22.9091C81.3636 23.1591 81.2689 23.3731 81.0795 23.5511C80.8939 23.7292 80.6705 23.8182 80.4091 23.8182ZM87.0469 37.4545C86.3991 37.4545 85.8423 37.3712 85.3764 37.2045C84.9105 37.0417 84.5223 36.8258 84.2116 36.5568C83.9048 36.2917 83.6605 36.0076 83.4787 35.7045L84.5469 34.9545C84.6681 35.1136 84.8215 35.2955 85.0071 35.5C85.1927 35.7083 85.4465 35.8883 85.7685 36.0398C86.0942 36.1951 86.5204 36.2727 87.0469 36.2727C87.7514 36.2727 88.3329 36.1023 88.7912 35.7614C89.2495 35.4205 89.4787 34.8864 89.4787 34.1591V32.3864H89.3651C89.2666 32.5455 89.1264 32.7424 88.9446 32.9773C88.7666 33.2083 88.509 33.4148 88.1719 33.5966C87.8385 33.7746 87.3878 33.8636 86.8196 33.8636C86.1151 33.8636 85.4825 33.697 84.9219 33.3636C84.3651 33.0303 83.9238 32.5455 83.598 31.9091C83.276 31.2727 83.1151 30.5 83.1151 29.5909C83.1151 28.697 83.2723 27.9186 83.5866 27.2557C83.901 26.589 84.3385 26.0739 84.8991 25.7102C85.4598 25.3428 86.1075 25.1591 86.8423 25.1591C87.4105 25.1591 87.8613 25.2538 88.1946 25.4432C88.5317 25.6288 88.7893 25.8409 88.9673 26.0795C89.1491 26.3144 89.2893 26.5076 89.3878 26.6591H89.5241V25.2727H90.8196V34.25C90.8196 35 90.6491 35.6098 90.3082 36.0795C89.9711 36.553 89.5166 36.8996 88.9446 37.1193C88.3764 37.3428 87.7438 37.4545 87.0469 37.4545ZM87.0014 32.6591C87.5393 32.6591 87.9938 32.536 88.3651 32.2898C88.7363 32.0436 89.0185 31.6894 89.2116 31.2273C89.4048 30.7652 89.5014 30.2121 89.5014 29.5682C89.5014 28.9394 89.4067 28.3845 89.2173 27.9034C89.0279 27.4223 88.7476 27.0455 88.3764 26.7727C88.0052 26.5 87.5469 26.3636 87.0014 26.3636C86.4332 26.3636 85.9598 26.5076 85.581 26.7955C85.206 27.0833 84.9238 27.4697 84.7344 27.9545C84.5488 28.4394 84.456 28.9773 84.456 29.5682C84.456 30.1742 84.5507 30.7102 84.7401 31.1761C84.9332 31.6383 85.2173 32.0019 85.5923 32.267C85.9711 32.5284 86.4408 32.6591 87.0014 32.6591ZM94.6151 28.75V34H93.2741V25.2727H94.5696V26.6364H94.6832C94.8878 26.1932 95.1984 25.8371 95.6151 25.5682C96.0317 25.2955 96.5696 25.1591 97.2287 25.1591C97.8196 25.1591 98.3366 25.2803 98.7798 25.5227C99.223 25.7614 99.5677 26.125 99.8139 26.6136C100.06 27.0985 100.183 27.7121 100.183 28.4545V34H98.8423V28.5455C98.8423 27.8598 98.6643 27.3258 98.3082 26.9432C97.9522 26.5568 97.4635 26.3636 96.8423 26.3636C96.4143 26.3636 96.0317 26.4564 95.6946 26.642C95.3613 26.8277 95.098 27.0985 94.9048 27.4545C94.7116 27.8106 94.6151 28.2424 94.6151 28.75ZM107.134 34V25.2727H108.474V34H107.134ZM107.815 23.8182C107.554 23.8182 107.329 23.7292 107.139 23.5511C106.954 23.3731 106.861 23.1591 106.861 22.9091C106.861 22.6591 106.954 22.4451 107.139 22.267C107.329 22.089 107.554 22 107.815 22C108.077 22 108.3 22.089 108.486 22.267C108.675 22.4451 108.77 22.6591 108.77 22.9091C108.77 23.1591 108.675 23.3731 108.486 23.5511C108.3 23.7292 108.077 23.8182 107.815 23.8182ZM112.271 28.75V34H110.93V25.2727H112.226V26.6364H112.339C112.544 26.1932 112.855 25.8371 113.271 25.5682C113.688 25.2955 114.226 25.1591 114.885 25.1591C115.476 25.1591 115.993 25.2803 116.436 25.5227C116.879 25.7614 117.224 26.125 117.47 26.6136C117.716 27.0985 117.839 27.7121 117.839 28.4545V34H116.499V28.5455C116.499 27.8598 116.321 27.3258 115.964 26.9432C115.608 26.5568 115.12 26.3636 114.499 26.3636C114.071 26.3636 113.688 26.4564 113.351 26.642C113.018 26.8277 112.754 27.0985 112.561 27.4545C112.368 27.8106 112.271 28.2424 112.271 28.75ZM126.767 34L124.108 25.2727H125.517L127.403 31.9545H127.494L129.358 25.2727H130.79L132.631 31.9318H132.722L134.608 25.2727H136.017L133.358 34H132.04L130.131 27.2955H129.994L128.085 34H126.767ZM137.79 34V25.2727H139.131V34H137.79ZM138.472 23.8182C138.21 23.8182 137.985 23.7292 137.795 23.5511C137.61 23.3731 137.517 23.1591 137.517 22.9091C137.517 22.6591 137.61 22.4451 137.795 22.267C137.985 22.089 138.21 22 138.472 22C138.733 22 138.956 22.089 139.142 22.267C139.331 22.4451 139.426 22.6591 139.426 22.9091C139.426 23.1591 139.331 23.3731 139.142 23.5511C138.956 23.7292 138.733 23.8182 138.472 23.8182ZM145.382 25.2727V26.4091H140.859V25.2727H145.382ZM142.178 23.1818H143.518V31.5C143.518 31.8788 143.573 32.1629 143.683 32.3523C143.797 32.5379 143.941 32.6629 144.115 32.7273C144.293 32.7879 144.481 32.8182 144.678 32.8182C144.825 32.8182 144.946 32.8106 145.041 32.7955C145.136 32.7765 145.212 32.7614 145.268 32.75L145.541 33.9545C145.45 33.9886 145.323 34.0227 145.161 34.0568C144.998 34.0947 144.791 34.1136 144.541 34.1136C144.162 34.1136 143.791 34.0322 143.428 33.8693C143.068 33.7064 142.768 33.4583 142.53 33.125C142.295 32.7917 142.178 32.3712 142.178 31.8636V23.1818ZM148.928 28.75V34H147.587V22.3636H148.928V26.6364H149.041C149.246 26.1856 149.553 25.8277 149.962 25.5625C150.375 25.2936 150.924 25.1591 151.609 25.1591C152.204 25.1591 152.725 25.2784 153.172 25.517C153.619 25.7519 153.965 26.1136 154.212 26.6023C154.462 27.0871 154.587 27.7045 154.587 28.4545V34H153.246V28.5455C153.246 27.8523 153.066 27.3163 152.706 26.9375C152.35 26.5549 151.856 26.3636 151.223 26.3636C150.784 26.3636 150.39 26.4564 150.041 26.642C149.696 26.8277 149.424 27.0985 149.223 27.4545C149.026 27.8106 148.928 28.2424 148.928 28.75ZM161.722 34V22.3636H168.699V23.6136H163.131V27.5455H168.176V28.7955H163.131V34H161.722ZM173.499 34.2045C172.946 34.2045 172.444 34.1004 171.993 33.892C171.542 33.6799 171.184 33.375 170.919 32.9773C170.654 32.5758 170.521 32.0909 170.521 31.5227C170.521 31.0227 170.62 30.6174 170.817 30.3068C171.014 29.9924 171.277 29.7462 171.607 29.5682C171.936 29.3902 172.3 29.2576 172.697 29.1705C173.099 29.0795 173.502 29.0076 173.908 28.9545C174.438 28.8864 174.868 28.8352 175.197 28.8011C175.531 28.7633 175.773 28.7008 175.925 28.6136C176.08 28.5265 176.158 28.375 176.158 28.1591V28.1136C176.158 27.553 176.004 27.1174 175.697 26.8068C175.394 26.4962 174.934 26.3409 174.317 26.3409C173.677 26.3409 173.175 26.4811 172.811 26.7614C172.447 27.0417 172.192 27.3409 172.044 27.6591L170.771 27.2045C170.999 26.6742 171.302 26.2614 171.68 25.9659C172.063 25.6667 172.48 25.4583 172.93 25.3409C173.385 25.2197 173.832 25.1591 174.271 25.1591C174.552 25.1591 174.874 25.1932 175.237 25.2614C175.605 25.3258 175.959 25.4602 176.3 25.6648C176.644 25.8693 176.93 26.178 177.158 26.5909C177.385 27.0038 177.499 27.5568 177.499 28.25V34H176.158V32.8182H176.089C175.999 33.0076 175.847 33.2102 175.635 33.4261C175.423 33.642 175.141 33.8258 174.788 33.9773C174.436 34.1288 174.006 34.2045 173.499 34.2045ZM173.703 33C174.233 33 174.68 32.8958 175.044 32.6875C175.411 32.4792 175.688 32.2102 175.874 31.8807C176.063 31.5511 176.158 31.2045 176.158 30.8409V29.6136C176.101 29.6818 175.976 29.7443 175.783 29.8011C175.593 29.8542 175.374 29.9015 175.124 29.9432C174.877 29.9811 174.637 30.0152 174.402 30.0455C174.171 30.072 173.983 30.0947 173.839 30.1136C173.491 30.1591 173.165 30.233 172.862 30.3352C172.563 30.4337 172.321 30.5833 172.135 30.7841C171.953 30.9811 171.862 31.25 171.862 31.5909C171.862 32.0568 172.035 32.4091 172.379 32.6477C172.728 32.8826 173.169 33 173.703 33ZM183.491 34.1818C182.673 34.1818 181.969 33.9886 181.378 33.6023C180.787 33.2159 180.332 32.6837 180.014 32.0057C179.696 31.3277 179.537 30.553 179.537 29.6818C179.537 28.7955 179.7 28.0133 180.026 27.3352C180.355 26.6534 180.813 26.1212 181.401 25.7386C181.991 25.3523 182.681 25.1591 183.469 25.1591C184.082 25.1591 184.635 25.2727 185.128 25.5C185.62 25.7273 186.024 26.0455 186.338 26.4545C186.652 26.8636 186.848 27.3409 186.923 27.8864H185.582C185.48 27.4886 185.253 27.1364 184.901 26.8295C184.552 26.5189 184.082 26.3636 183.491 26.3636C182.969 26.3636 182.51 26.5 182.116 26.7727C181.726 27.0417 181.421 27.4223 181.202 27.9148C180.986 28.4034 180.878 28.9773 180.878 29.6364C180.878 30.3106 180.984 30.8977 181.196 31.3977C181.412 31.8977 181.715 32.286 182.105 32.5625C182.499 32.839 182.961 32.9773 183.491 32.9773C183.84 32.9773 184.156 32.9167 184.44 32.7955C184.724 32.6742 184.965 32.5 185.162 32.2727C185.359 32.0455 185.499 31.7727 185.582 31.4545H186.923C186.848 31.9697 186.66 32.4337 186.361 32.8466C186.065 33.2557 185.673 33.5814 185.185 33.8239C184.7 34.0625 184.135 34.1818 183.491 34.1818ZM192.543 34.1818C191.702 34.1818 190.976 33.9962 190.366 33.625C189.76 33.25 189.293 32.7273 188.963 32.0568C188.637 31.3826 188.474 30.5985 188.474 29.7045C188.474 28.8106 188.637 28.0227 188.963 27.3409C189.293 26.6553 189.751 26.1212 190.338 25.7386C190.929 25.3523 191.618 25.1591 192.406 25.1591C192.861 25.1591 193.31 25.2348 193.753 25.3864C194.196 25.5379 194.599 25.7841 194.963 26.125C195.327 26.4621 195.616 26.9091 195.832 27.4659C196.048 28.0227 196.156 28.7083 196.156 29.5227V30.0909H189.429V28.9318H194.793C194.793 28.4394 194.694 28 194.497 27.6136C194.304 27.2273 194.027 26.9223 193.668 26.6989C193.312 26.4754 192.891 26.3636 192.406 26.3636C191.872 26.3636 191.41 26.4962 191.02 26.7614C190.634 27.0227 190.336 27.3636 190.128 27.7841C189.92 28.2045 189.815 28.6553 189.815 29.1364V29.9091C189.815 30.5682 189.929 31.1269 190.156 31.5852C190.387 32.0398 190.707 32.3864 191.116 32.625C191.526 32.8598 192.001 32.9773 192.543 32.9773C192.895 32.9773 193.213 32.928 193.497 32.8295C193.785 32.7273 194.033 32.5758 194.241 32.375C194.45 32.1705 194.611 31.9167 194.724 31.6136L196.02 31.9773C195.884 32.4167 195.654 32.803 195.332 33.1364C195.01 33.4659 194.613 33.7235 194.139 33.9091C193.666 34.0909 193.134 34.1818 192.543 34.1818ZM198.378 34V22.3636H199.719V26.6591H199.832C199.931 26.5076 200.067 26.3144 200.241 26.0795C200.42 25.8409 200.673 25.6288 201.003 25.4432C201.336 25.2538 201.787 25.1591 202.355 25.1591C203.09 25.1591 203.738 25.3428 204.298 25.7102C204.859 26.0777 205.296 26.5985 205.611 27.2727C205.925 27.947 206.082 28.7424 206.082 29.6591C206.082 30.5833 205.925 31.3845 205.611 32.0625C205.296 32.7367 204.861 33.2595 204.304 33.6307C203.747 33.9981 203.105 34.1818 202.378 34.1818C201.817 34.1818 201.368 34.089 201.031 33.9034C200.694 33.714 200.435 33.5 200.253 33.2614C200.071 33.0189 199.931 32.8182 199.832 32.6591H199.673V34H198.378ZM199.696 29.6364C199.696 30.2955 199.793 30.8769 199.986 31.3807C200.179 31.8807 200.461 32.2727 200.832 32.5568C201.204 32.8371 201.658 32.9773 202.196 32.9773C202.757 32.9773 203.224 32.8295 203.599 32.5341C203.978 32.2348 204.262 31.8333 204.452 31.3295C204.645 30.822 204.741 30.2576 204.741 29.6364C204.741 29.0227 204.647 28.4697 204.457 27.9773C204.272 27.4811 203.99 27.089 203.611 26.8011C203.236 26.5095 202.764 26.3636 202.196 26.3636C201.651 26.3636 201.192 26.5019 200.821 26.7784C200.45 27.0511 200.17 27.4337 199.98 27.9261C199.791 28.4148 199.696 28.9848 199.696 29.6364ZM211.679 34.1818C210.891 34.1818 210.2 33.9943 209.605 33.6193C209.014 33.2443 208.552 32.7197 208.219 32.0455C207.889 31.3712 207.724 30.5833 207.724 29.6818C207.724 28.7727 207.889 27.9792 208.219 27.3011C208.552 26.6231 209.014 26.0966 209.605 25.7216C210.2 25.3466 210.891 25.1591 211.679 25.1591C212.467 25.1591 213.156 25.3466 213.747 25.7216C214.342 26.0966 214.804 26.6231 215.134 27.3011C215.467 27.9792 215.634 28.7727 215.634 29.6818C215.634 30.5833 215.467 31.3712 215.134 32.0455C214.804 32.7197 214.342 33.2443 213.747 33.6193C213.156 33.9943 212.467 34.1818 211.679 34.1818ZM211.679 32.9773C212.277 32.9773 212.77 32.8239 213.156 32.517C213.543 32.2102 213.829 31.8068 214.014 31.3068C214.2 30.8068 214.293 30.2652 214.293 29.6818C214.293 29.0985 214.2 28.5549 214.014 28.0511C213.829 27.5473 213.543 27.1402 213.156 26.8295C212.77 26.5189 212.277 26.3636 211.679 26.3636C211.08 26.3636 210.588 26.5189 210.202 26.8295C209.815 27.1402 209.529 27.5473 209.344 28.0511C209.158 28.5549 209.065 29.0985 209.065 29.6818C209.065 30.2652 209.158 30.8068 209.344 31.3068C209.529 31.8068 209.815 32.2102 210.202 32.517C210.588 32.8239 211.08 32.9773 211.679 32.9773ZM221.226 34.1818C220.438 34.1818 219.747 33.9943 219.152 33.6193C218.561 33.2443 218.099 32.7197 217.766 32.0455C217.436 31.3712 217.271 30.5833 217.271 29.6818C217.271 28.7727 217.436 27.9792 217.766 27.3011C218.099 26.6231 218.561 26.0966 219.152 25.7216C219.747 25.3466 220.438 25.1591 221.226 25.1591C222.014 25.1591 222.703 25.3466 223.294 25.7216C223.889 26.0966 224.351 26.6231 224.68 27.3011C225.014 27.9792 225.18 28.7727 225.18 29.6818C225.18 30.5833 225.014 31.3712 224.68 32.0455C224.351 32.7197 223.889 33.2443 223.294 33.6193C222.703 33.9943 222.014 34.1818 221.226 34.1818ZM221.226 32.9773C221.824 32.9773 222.317 32.8239 222.703 32.517C223.089 32.2102 223.375 31.8068 223.561 31.3068C223.747 30.8068 223.839 30.2652 223.839 29.6818C223.839 29.0985 223.747 28.5549 223.561 28.0511C223.375 27.5473 223.089 27.1402 222.703 26.8295C222.317 26.5189 221.824 26.3636 221.226 26.3636C220.627 26.3636 220.135 26.5189 219.749 26.8295C219.362 27.1402 219.076 27.5473 218.891 28.0511C218.705 28.5549 218.612 29.0985 218.612 29.6818C218.612 30.2652 218.705 30.8068 218.891 31.3068C219.076 31.8068 219.362 32.2102 219.749 32.517C220.135 32.8239 220.627 32.9773 221.226 32.9773ZM228.477 30.8182L228.455 29.1591H228.727L232.545 25.2727H234.205L230.136 29.3864H230.023L228.477 30.8182ZM227.227 34V22.3636H228.568V34H227.227ZM232.773 34L229.364 29.6818L230.318 28.75L234.477 34H232.773Z" fill="black"/>
</svg>
