<svg width="271" height="56" viewBox="0 0 271 56" fill="none" xmlns="http://www.w3.org/2000/svg">
<path d="M0 25.6C0 16.6392 0 12.1587 1.7439 8.73615C3.27787 5.72556 5.72556 3.27787 8.73615 1.7439C12.1587 0 16.6392 0 25.6 0H245.4C254.361 0 258.841 0 262.264 1.7439C265.274 3.27787 267.722 5.72556 269.256 8.73615C271 12.1587 271 16.6392 271 25.6V30.4C271 39.3608 271 43.8413 269.256 47.2638C267.722 50.2744 265.274 52.7221 262.264 54.2561C258.841 56 254.361 56 245.4 56H25.6C16.6392 56 12.1587 56 8.73615 54.2561C5.72556 52.7221 3.27787 50.2744 1.7439 47.2638C0 43.8413 0 39.3608 0 30.4V25.6Z" fill="white"/>
<path d="M25.5996 0.25H245.4C249.885 0.25 253.233 0.249841 255.889 0.466797C258.541 0.683527 260.48 1.11582 262.15 1.9668C265.114 3.47679 267.523 5.88613 269.033 8.84961C269.884 10.5197 270.316 12.4589 270.533 15.1113C270.75 17.7667 270.75 21.1153 270.75 25.5996V30.4004C270.75 34.8847 270.75 38.2333 270.533 40.8887C270.316 43.5411 269.884 45.4803 269.033 47.1504C267.523 50.1139 265.114 52.5232 262.15 54.0332C260.48 54.8842 258.541 55.3165 255.889 55.5332C253.233 55.7502 249.885 55.75 245.4 55.75H25.5996C21.1153 55.75 17.7667 55.7502 15.1113 55.5332C12.4589 55.3165 10.5197 54.8842 8.84961 54.0332C5.88613 52.5232 3.47679 50.1139 1.9668 47.1504C1.11582 45.4803 0.683527 43.5411 0.466797 40.8887C0.249841 38.2333 0.25 34.8847 0.25 30.4004V25.5996C0.25 21.1153 0.249841 17.7667 0.466797 15.1113C0.683527 12.4589 1.11582 10.5197 1.9668 8.84961C3.47679 5.88613 5.88613 3.47679 8.84961 1.9668C10.5197 1.11582 12.4589 0.683527 15.1113 0.466797C17.7667 0.249841 21.1153 0.25 25.5996 0.25Z" stroke="black" stroke-opacity="0.1" stroke-width="0.5"/>
<path d="M58.7449 20.64C61.0443 20.64 62.5953 21.6133 63.4796 22.4267L66.9354 19.12C64.813 17.1867 62.0511 16 58.7449 16C53.9558 16 49.8198 18.6933 47.8062 22.6133L51.7653 25.6267C52.7585 22.7333 55.5068 20.64 58.7449 20.64Z" fill="#F25022"/>
<path d="M70.5 28.2666C70.5 27.28 70.4183 26.56 70.2415 25.8133H58.7449V30.2666H65.4932C65.3571 31.3733 64.6224 33.04 62.9898 34.16L66.8537 37.0933C69.1666 35 70.5 31.92 70.5 28.2666Z" fill="#4285F4"/>
<path d="M51.7789 30.3734C51.5204 29.6267 51.3707 28.8267 51.3707 28C51.3707 27.1734 51.5204 26.3734 51.7653 25.6267L47.8061 22.6134C46.9762 24.24 46.5 26.0667 46.5 28C46.5 29.9334 46.9762 31.76 47.8061 33.3867L51.7789 30.3734Z" fill="#FBBC05"/>
<path d="M58.745 40C62.0511 40 64.8266 38.9333 66.8538 37.0933L62.9899 34.16C61.9559 34.8667 60.5681 35.36 58.745 35.36C55.5069 35.36 52.7586 33.2667 51.779 30.3733L47.8198 33.3867C49.8334 37.3067 53.9559 40 58.745 40Z" fill="#34A853"/>
<path d="M86.343 25.2727C86.2749 24.697 85.9983 24.25 85.5135 23.9318C85.0286 23.6136 84.4339 23.4545 83.7294 23.4545C83.2143 23.4545 82.7635 23.5379 82.3771 23.7045C81.9946 23.8712 81.6953 24.1004 81.4794 24.392C81.2673 24.6837 81.1612 25.0152 81.1612 25.3864C81.1612 25.697 81.2351 25.964 81.3828 26.1875C81.5343 26.4072 81.7275 26.5909 81.9624 26.7386C82.1972 26.8826 82.4434 27.0019 82.701 27.0966C82.9586 27.1875 83.1953 27.2614 83.4112 27.3182L84.593 27.6364C84.8961 27.7159 85.2332 27.8258 85.6044 27.9659C85.9794 28.1061 86.3374 28.2973 86.6783 28.5398C87.023 28.7784 87.3071 29.0852 87.5305 29.4602C87.754 29.8352 87.8658 30.2955 87.8658 30.8409C87.8658 31.4697 87.701 32.0379 87.3714 32.5455C87.0457 33.053 86.5684 33.4564 85.9396 33.7557C85.3146 34.0549 84.5552 34.2045 83.6612 34.2045C82.8279 34.2045 82.1063 34.0701 81.4964 33.8011C80.8904 33.5322 80.4131 33.1572 80.0646 32.6761C79.7199 32.1951 79.5249 31.6364 79.4794 31H80.9339C80.9718 31.4394 81.1196 31.803 81.3771 32.0909C81.6385 32.375 81.968 32.5871 82.3658 32.7273C82.7673 32.8636 83.1991 32.9318 83.6612 32.9318C84.1991 32.9318 84.6821 32.8447 85.1101 32.6705C85.5381 32.4924 85.8771 32.2462 86.1271 31.9318C86.3771 31.6136 86.5021 31.2424 86.5021 30.8182C86.5021 30.4318 86.3942 30.1174 86.1783 29.875C85.9624 29.6326 85.6783 29.4356 85.326 29.2841C84.9737 29.1326 84.593 29 84.1839 28.8864L82.7521 28.4773C81.843 28.2159 81.1233 27.8428 80.593 27.358C80.0627 26.8731 79.7976 26.2386 79.7976 25.4545C79.7976 24.803 79.9737 24.2348 80.326 23.75C80.6821 23.2614 81.1593 22.8826 81.7578 22.6136C82.3601 22.3409 83.0324 22.2045 83.7749 22.2045C84.5249 22.2045 85.1915 22.339 85.7749 22.608C86.3582 22.8731 86.8203 23.2367 87.1612 23.6989C87.5059 24.161 87.6877 24.6856 87.7067 25.2727H86.343ZM90.0007 34V25.2727H91.3416V34H90.0007ZM90.6825 23.8182C90.4212 23.8182 90.1958 23.7292 90.0064 23.5511C89.8208 23.3731 89.728 23.1591 89.728 22.9091C89.728 22.6591 89.8208 22.4451 90.0064 22.267C90.1958 22.089 90.4212 22 90.6825 22C90.9439 22 91.1674 22.089 91.353 22.267C91.5424 22.4451 91.6371 22.6591 91.6371 22.9091C91.6371 23.1591 91.5424 23.3731 91.353 23.5511C91.1674 23.7292 90.9439 23.8182 90.6825 23.8182ZM97.3203 37.4545C96.6726 37.4545 96.1158 37.3712 95.6499 37.2045C95.1839 37.0417 94.7957 36.8258 94.4851 36.5568C94.1783 36.2917 93.9339 36.0076 93.7521 35.7045L94.8203 34.9545C94.9415 35.1136 95.0949 35.2955 95.2805 35.5C95.4661 35.7083 95.7199 35.8883 96.0419 36.0398C96.3677 36.1951 96.7938 36.2727 97.3203 36.2727C98.0249 36.2727 98.6063 36.1023 99.0646 35.7614C99.523 35.4205 99.7521 34.8864 99.7521 34.1591V32.3864H99.6385C99.54 32.5455 99.3999 32.7424 99.218 32.9773C99.04 33.2083 98.7824 33.4148 98.4453 33.5966C98.112 33.7746 97.6612 33.8636 97.093 33.8636C96.3885 33.8636 95.7559 33.697 95.1953 33.3636C94.6385 33.0303 94.1972 32.5455 93.8714 31.9091C93.5495 31.2727 93.3885 30.5 93.3885 29.5909C93.3885 28.697 93.5457 27.9186 93.8601 27.2557C94.1745 26.589 94.612 26.0739 95.1726 25.7102C95.7332 25.3428 96.3809 25.1591 97.1158 25.1591C97.6839 25.1591 98.1347 25.2538 98.468 25.4432C98.8052 25.6288 99.0627 25.8409 99.2408 26.0795C99.4226 26.3144 99.5627 26.5076 99.6612 26.6591H99.7976V25.2727H101.093V34.25C101.093 35 100.923 35.6098 100.582 36.0795C100.245 36.553 99.79 36.8996 99.218 37.1193C98.6499 37.3428 98.0173 37.4545 97.3203 37.4545ZM97.2749 32.6591C97.8127 32.6591 98.2673 32.536 98.6385 32.2898C99.0097 32.0436 99.2919 31.6894 99.4851 31.2273C99.6783 30.7652 99.7749 30.2121 99.7749 29.5682C99.7749 28.9394 99.6802 28.3845 99.4908 27.9034C99.3014 27.4223 99.0211 27.0455 98.6499 26.7727C98.2786 26.5 97.8203 26.3636 97.2749 26.3636C96.7067 26.3636 96.2332 26.5076 95.8544 26.7955C95.4794 27.0833 95.1972 27.4697 95.0078 27.9545C94.8222 28.4394 94.7294 28.9773 94.7294 29.5682C94.7294 30.1742 94.8241 30.7102 95.0135 31.1761C95.2067 31.6383 95.4908 32.0019 95.8658 32.267C96.2446 32.5284 96.7143 32.6591 97.2749 32.6591ZM104.888 28.75V34H103.548V25.2727H104.843V26.6364H104.957C105.161 26.1932 105.472 25.8371 105.888 25.5682C106.305 25.2955 106.843 25.1591 107.502 25.1591C108.093 25.1591 108.61 25.2803 109.053 25.5227C109.496 25.7614 109.841 26.125 110.087 26.6136C110.334 27.0985 110.457 27.7121 110.457 28.4545V34H109.116V28.5455C109.116 27.8598 108.938 27.3258 108.582 26.9432C108.226 26.5568 107.737 26.3636 107.116 26.3636C106.688 26.3636 106.305 26.4564 105.968 26.642C105.635 26.8277 105.371 27.0985 105.178 27.4545C104.985 27.8106 104.888 28.2424 104.888 28.75ZM117.407 34V25.2727H118.748V34H117.407ZM118.089 23.8182C117.827 23.8182 117.602 23.7292 117.413 23.5511C117.227 23.3731 117.134 23.1591 117.134 22.9091C117.134 22.6591 117.227 22.4451 117.413 22.267C117.602 22.089 117.827 22 118.089 22C118.35 22 118.574 22.089 118.759 22.267C118.949 22.4451 119.043 22.6591 119.043 22.9091C119.043 23.1591 118.949 23.3731 118.759 23.5511C118.574 23.7292 118.35 23.8182 118.089 23.8182ZM122.545 28.75V34H121.204V25.2727H122.499V26.6364H122.613C122.817 26.1932 123.128 25.8371 123.545 25.5682C123.961 25.2955 124.499 25.1591 125.158 25.1591C125.749 25.1591 126.266 25.2803 126.71 25.5227C127.153 25.7614 127.497 26.125 127.744 26.6136C127.99 27.0985 128.113 27.7121 128.113 28.4545V34H126.772V28.5455C126.772 27.8598 126.594 27.3258 126.238 26.9432C125.882 26.5568 125.393 26.3636 124.772 26.3636C124.344 26.3636 123.961 26.4564 123.624 26.642C123.291 26.8277 123.028 27.0985 122.835 27.4545C122.641 27.8106 122.545 28.2424 122.545 28.75ZM137.04 34L134.381 25.2727H135.79L137.677 31.9545H137.768L139.631 25.2727H141.063L142.904 31.9318H142.995L144.881 25.2727H146.29L143.631 34H142.313L140.404 27.2955H140.268L138.359 34H137.04ZM148.063 34V25.2727H149.404V34H148.063ZM148.745 23.8182C148.484 23.8182 148.258 23.7292 148.069 23.5511C147.883 23.3731 147.79 23.1591 147.79 22.9091C147.79 22.6591 147.883 22.4451 148.069 22.267C148.258 22.089 148.484 22 148.745 22C149.006 22 149.23 22.089 149.415 22.267C149.605 22.4451 149.7 22.6591 149.7 22.9091C149.7 23.1591 149.605 23.3731 149.415 23.5511C149.23 23.7292 149.006 23.8182 148.745 23.8182ZM155.656 25.2727V26.4091H151.133V25.2727H155.656ZM152.451 23.1818H153.792V31.5C153.792 31.8788 153.847 32.1629 153.957 32.3523C154.07 32.5379 154.214 32.6629 154.388 32.7273C154.567 32.7879 154.754 32.8182 154.951 32.8182C155.099 32.8182 155.22 32.8106 155.315 32.7955C155.409 32.7765 155.485 32.7614 155.542 32.75L155.815 33.9545C155.724 33.9886 155.597 34.0227 155.434 34.0568C155.271 34.0947 155.065 34.1136 154.815 34.1136C154.436 34.1136 154.065 34.0322 153.701 33.8693C153.341 33.7064 153.042 33.4583 152.803 33.125C152.568 32.7917 152.451 32.3712 152.451 31.8636V23.1818ZM159.201 28.75V34H157.86V22.3636H159.201V26.6364H159.315C159.519 26.1856 159.826 25.8277 160.235 25.5625C160.648 25.2936 161.197 25.1591 161.883 25.1591C162.478 25.1591 162.998 25.2784 163.445 25.517C163.892 25.7519 164.239 26.1136 164.485 26.6023C164.735 27.0871 164.86 27.7045 164.86 28.4545V34H163.519V28.5455C163.519 27.8523 163.339 27.3163 162.979 26.9375C162.623 26.5549 162.129 26.3636 161.496 26.3636C161.057 26.3636 160.663 26.4564 160.315 26.642C159.97 26.8277 159.697 27.0985 159.496 27.4545C159.299 27.8106 159.201 28.2424 159.201 28.75ZM179.95 26C179.825 25.6174 179.66 25.2746 179.455 24.9716C179.254 24.6648 179.014 24.4034 178.734 24.1875C178.457 23.9716 178.143 23.8068 177.79 23.6932C177.438 23.5795 177.052 23.5227 176.631 23.5227C175.942 23.5227 175.315 23.7008 174.751 24.0568C174.186 24.4129 173.737 24.9375 173.404 25.6307C173.071 26.3239 172.904 27.1742 172.904 28.1818C172.904 29.1894 173.073 30.0398 173.41 30.733C173.747 31.4261 174.203 31.9508 174.779 32.3068C175.355 32.6629 176.003 32.8409 176.722 32.8409C177.389 32.8409 177.976 32.6989 178.484 32.4148C178.995 32.1269 179.393 31.7216 179.677 31.1989C179.965 30.6723 180.109 30.053 180.109 29.3409L180.54 29.4318H177.04V28.1818H181.472V29.4318C181.472 30.3902 181.268 31.2235 180.859 31.9318C180.453 32.6402 179.893 33.1894 179.177 33.5795C178.465 33.9659 177.647 34.1591 176.722 34.1591C175.692 34.1591 174.787 33.9167 174.006 33.4318C173.23 32.947 172.624 32.2576 172.188 31.3636C171.756 30.4697 171.54 29.4091 171.54 28.1818C171.54 27.2614 171.664 26.4337 171.91 25.6989C172.16 24.9602 172.512 24.3314 172.967 23.8125C173.421 23.2936 173.959 22.8958 174.58 22.6193C175.201 22.3428 175.885 22.2045 176.631 22.2045C177.245 22.2045 177.817 22.2973 178.347 22.483C178.881 22.6648 179.357 22.9242 179.773 23.2614C180.194 23.5947 180.544 23.9943 180.825 24.4602C181.105 24.9223 181.298 25.4356 181.404 26H179.95ZM187.249 34.1818C186.461 34.1818 185.77 33.9943 185.175 33.6193C184.585 33.2443 184.122 32.7197 183.789 32.0455C183.46 31.3712 183.295 30.5833 183.295 29.6818C183.295 28.7727 183.46 27.9792 183.789 27.3011C184.122 26.6231 184.585 26.0966 185.175 25.7216C185.77 25.3466 186.461 25.1591 187.249 25.1591C188.037 25.1591 188.727 25.3466 189.317 25.7216C189.912 26.0966 190.374 26.6231 190.704 27.3011C191.037 27.9792 191.204 28.7727 191.204 29.6818C191.204 30.5833 191.037 31.3712 190.704 32.0455C190.374 32.7197 189.912 33.2443 189.317 33.6193C188.727 33.9943 188.037 34.1818 187.249 34.1818ZM187.249 32.9773C187.848 32.9773 188.34 32.8239 188.727 32.517C189.113 32.2102 189.399 31.8068 189.585 31.3068C189.77 30.8068 189.863 30.2652 189.863 29.6818C189.863 29.0985 189.77 28.5549 189.585 28.0511C189.399 27.5473 189.113 27.1402 188.727 26.8295C188.34 26.5189 187.848 26.3636 187.249 26.3636C186.651 26.3636 186.158 26.5189 185.772 26.8295C185.386 27.1402 185.1 27.5473 184.914 28.0511C184.728 28.5549 184.636 29.0985 184.636 29.6818C184.636 30.2652 184.728 30.8068 184.914 31.3068C185.1 31.8068 185.386 32.2102 185.772 32.517C186.158 32.8239 186.651 32.9773 187.249 32.9773ZM196.796 34.1818C196.008 34.1818 195.317 33.9943 194.722 33.6193C194.131 33.2443 193.669 32.7197 193.336 32.0455C193.006 31.3712 192.842 30.5833 192.842 29.6818C192.842 28.7727 193.006 27.9792 193.336 27.3011C193.669 26.6231 194.131 26.0966 194.722 25.7216C195.317 25.3466 196.008 25.1591 196.796 25.1591C197.584 25.1591 198.273 25.3466 198.864 25.7216C199.459 26.0966 199.921 26.6231 200.251 27.3011C200.584 27.9792 200.751 28.7727 200.751 29.6818C200.751 30.5833 200.584 31.3712 200.251 32.0455C199.921 32.7197 199.459 33.2443 198.864 33.6193C198.273 33.9943 197.584 34.1818 196.796 34.1818ZM196.796 32.9773C197.395 32.9773 197.887 32.8239 198.273 32.517C198.66 32.2102 198.946 31.8068 199.131 31.3068C199.317 30.8068 199.41 30.2652 199.41 29.6818C199.41 29.0985 199.317 28.5549 199.131 28.0511C198.946 27.5473 198.66 27.1402 198.273 26.8295C197.887 26.5189 197.395 26.3636 196.796 26.3636C196.198 26.3636 195.705 26.5189 195.319 26.8295C194.933 27.1402 194.647 27.5473 194.461 28.0511C194.275 28.5549 194.183 29.0985 194.183 29.6818C194.183 30.2652 194.275 30.8068 194.461 31.3068C194.647 31.8068 194.933 32.2102 195.319 32.517C195.705 32.8239 196.198 32.9773 196.796 32.9773ZM206.32 37.4545C205.673 37.4545 205.116 37.3712 204.65 37.2045C204.184 37.0417 203.796 36.8258 203.485 36.5568C203.178 36.2917 202.934 36.0076 202.752 35.7045L203.82 34.9545C203.942 35.1136 204.095 35.2955 204.281 35.5C204.466 35.7083 204.72 35.8883 205.042 36.0398C205.368 36.1951 205.794 36.2727 206.32 36.2727C207.025 36.2727 207.606 36.1023 208.065 35.7614C208.523 35.4205 208.752 34.8864 208.752 34.1591V32.3864H208.638C208.54 32.5455 208.4 32.7424 208.218 32.9773C208.04 33.2083 207.782 33.4148 207.445 33.5966C207.112 33.7746 206.661 33.8636 206.093 33.8636C205.388 33.8636 204.756 33.697 204.195 33.3636C203.638 33.0303 203.197 32.5455 202.871 31.9091C202.549 31.2727 202.388 30.5 202.388 29.5909C202.388 28.697 202.546 27.9186 202.86 27.2557C203.174 26.589 203.612 26.0739 204.173 25.7102C204.733 25.3428 205.381 25.1591 206.116 25.1591C206.684 25.1591 207.135 25.2538 207.468 25.4432C207.805 25.6288 208.063 25.8409 208.241 26.0795C208.423 26.3144 208.563 26.5076 208.661 26.6591H208.798V25.2727H210.093V34.25C210.093 35 209.923 35.6098 209.582 36.0795C209.245 36.553 208.79 36.8996 208.218 37.1193C207.65 37.3428 207.017 37.4545 206.32 37.4545ZM206.275 32.6591C206.813 32.6591 207.267 32.536 207.638 32.2898C208.01 32.0436 208.292 31.6894 208.485 31.2273C208.678 30.7652 208.775 30.2121 208.775 29.5682C208.775 28.9394 208.68 28.3845 208.491 27.9034C208.301 27.4223 208.021 27.0455 207.65 26.7727C207.279 26.5 206.82 26.3636 206.275 26.3636C205.707 26.3636 205.233 26.5076 204.854 26.7955C204.479 27.0833 204.197 27.4697 204.008 27.9545C203.822 28.4394 203.729 28.9773 203.729 29.5682C203.729 30.1742 203.824 30.7102 204.013 31.1761C204.207 31.6383 204.491 32.0019 204.866 32.267C205.245 32.5284 205.714 32.6591 206.275 32.6591ZM213.888 22.3636V34H212.548V22.3636H213.888ZM220.004 34.1818C219.163 34.1818 218.437 33.9962 217.827 33.625C217.221 33.25 216.754 32.7273 216.424 32.0568C216.098 31.3826 215.935 30.5985 215.935 29.7045C215.935 28.8106 216.098 28.0227 216.424 27.3409C216.754 26.6553 217.212 26.1212 217.799 25.7386C218.39 25.3523 219.079 25.1591 219.867 25.1591C220.322 25.1591 220.771 25.2348 221.214 25.3864C221.657 25.5379 222.06 25.7841 222.424 26.125C222.788 26.4621 223.077 26.9091 223.293 27.4659C223.509 28.0227 223.617 28.7083 223.617 29.5227V30.0909H216.89V28.9318H222.254C222.254 28.4394 222.155 28 221.958 27.6136C221.765 27.2273 221.488 26.9223 221.129 26.6989C220.772 26.4754 220.352 26.3636 219.867 26.3636C219.333 26.3636 218.871 26.4962 218.481 26.7614C218.094 27.0227 217.797 27.3636 217.589 27.7841C217.38 28.2045 217.276 28.6553 217.276 29.1364V29.9091C217.276 30.5682 217.39 31.1269 217.617 31.5852C217.848 32.0398 218.168 32.3864 218.577 32.625C218.987 32.8598 219.462 32.9773 220.004 32.9773C220.356 32.9773 220.674 32.928 220.958 32.8295C221.246 32.7273 221.494 32.5758 221.702 32.375C221.911 32.1705 222.072 31.9167 222.185 31.6136L223.481 31.9773C223.344 32.4167 223.115 32.803 222.793 33.1364C222.471 33.4659 222.074 33.7235 221.6 33.9091C221.127 34.0909 220.594 34.1818 220.004 34.1818Z" fill="black"/>
</svg>
